<svg xmlns="http://www.w3.org/2000/svg" viewBox="0 0 912 262"><path fill="#00468d" d="M2.99 262h-1.3l.1-193.2q0-.57-.52-.8L0 67.44l.01-1.81c12.37.95 28.35 9.99 39.05 16.77q35.86 22.75 64.55 54.05.4.44.87.07.95-.76.75-2.09-.09-.57.37-.93l.94-.76q.72-.59.93.32c1.22 5.34 6.62 4.53 7.74 10.43q.09.49.53.72c3.33 1.76 9.46 1.66 13.77 1.74q.53.01.88-.38c3.57-3.81 10.11-1.94 13.37 1.13q.48.45.91-.04l.82-.94q.35-.4.88-.45c4.72-.43 13.41-4.39 12.82-10.33q-.05-.51-.53-.35c-1.5.51-6.91 3.35-5.86-1.32q.12-.49-.33-.72-1.87-.98-1.74-3.11.04-.6-.53-.82l-1.33-.52q-.84-.33-.27-1.03l2.04-2.48q.33-.41.11-.87-1.14-2.37-1.01-5.01.08-1.55-.83-.29l-.83 1.16q-.82 1.16-.79-.26.03-1.35-.59-2.51-.24-.44-.08-.91c3.39-10 15.15-13.94 24.87-12.66q.55.08 2 1.17.63.48.72-.31.09-.78-.63-1.37-1.26-1.05.24-.37 1.17.53.93 1.77-.13.67.55.74l1.91.18q.94.09.17.64-.53.37-1.17.19-2.19-.64-.21.87.66.51 1.42.81.53.21.78.72 3.83 7.91 1.36 16.38-.16.53-.6.86c-.76.58-4.07 1.83-3.99 2.52q.06.48.53.36l3.02-.75a.65.65 0 0 1 .72.95l-1.42 2.45q-.29.5.23.75 6.06 2.98 7.69 9.95 2.05 8.71 2.15 16.24.01.78.45.14c16.73-24.15 21.11-59.82 12.68-87.3-11.2-36.48-44.47-60.59-81.56-66.11q-.85-.13-.01-.32c36.58-8.11 73.77 4.96 99.02 31.88 12.27 13.09 20.02 28.24 25.08 45.37 11.06 37.44-.52 80.81-30.19 107.09q-33.62 29.79-81.11 30.29-1.35.01-1.74 1.68-.1.39.11.74l.92 1.55q.36.6-.06 1.16l-5.38 7.12q-.31.4-.76.18l-2.54-1.2q-.53-.25-.95.14-5.72 5.31-7.22 12.02c-.77 3.43 2.81 7-.59 10.06q-.35.32-.82.35c-2.77.21-5.26.23-7.82 1.52-3.3 1.67-7.94 5.02-11.63 4.97-2.39-.03-4.09-1.6-6.33-2.48-2.11-.84-2.67-1.78-1.94-3.98q.43-1.29 1.42-.36c2.95 2.76 8.24-2.77 10.33-4.55q10.46-8.95 13.88-22.56.13-.53-.32-.84l-2.94-1.98q-1.11-.75-.27-1.8l3.41-4.24a.6.6 0 0 0-.26-.94q-21.28-7.93-39.01-22.09-1.8-1.44.24-.36 13.32 7.01 28.22 9.29a.35.35 0 0 0 .28-.61q-1.52-1.33-.47-2.96.36-.56.96-.27c1.43.68 2.36 1.18 3.98.57 7.31-2.76 15.29-5.94 16.76-14.69q.09-.52-.42-.66l-3.83-1.04q-.43-.11-.45-.56-.23-4.39 1.24-8.54.23-.67.94-.67h1.91q.59 0 .76-.57l2.01-6.82q.3-.98-.7-.75l-3.09.71q-.68.16-.53.84l.54 2.4q.16.74-.58.89-2.34.5-2.45-1.74-.03-.69-.72-.7l-2.19-.03q-.7-.01-.89-.69l-1.27-4.68q-.13-.48-.52-.77l-1.15-.85q-.51-.38-.33-.98.52-1.82 2.35-2.32a.73.73 0 0 0 .44-1.05l-3.86-6.93q-.27-.5-.82-.66l-1.35-.4q-.55-.16-.85-.65c-1.76-2.87-2.41-5.49-5.74-7.12q-.55-.27-.41-.87l.3-1.3q.13-.58-.27-1.01c-22.65-24.07-48.01-44.13-76.73-60.53Q13.9 71.2 3.81 68.31q-.6-.17-.61.45L2.99 262Zm122.78-107.73q-6.43-1.66-12.03-5.24a.37.37 0 0 0-.52.48l2.69 5.04q.15.28.46.21l1.29-.28q.56-.12.88.37l2.55 3.95q.36.56 1.02.5l2.43-.2q.63-.05.78-.67l.85-3.51a.55.54 13.5 0 0-.4-.65Zm33.6 15.07q1.36-5.3-.37-10.44-.17-.5-.68-.35l-4.82 1.43q-.7.21-.32.83l5.19 8.67a.55.54 36.7 0 0 1-.14Zm-23.5 18.52-4.66-.94q-.78-.16-.77.63l.03 5.63q0 .85.72.4 6.06-3.79 13.05-5.47.63-.15.37-.75-3.86-8.74-5.6-18.12a.48.47-48.5 0 0-.94.06l-.5 7.79q-.03.53.43.78l.56.3q.49.26.38.81l-1.69 7.98q-.24 1.14-1.38.9ZM683.88 123.83q7.12-5.85 17.06-7.89c14.44-2.94 41.06-1.29 45.71 17.04q.18.7.24-.02.54-6.79-.19-12.15c-.36-2.6-3.61-2.81-6.11-2.89q-.46-.01-.62-.44l-.38-1.05q-.24-.68.48-.68 17.61-.01 35.18.01c6.53 0 24.29 2.03 20.39 13.22-1.56 4.46-7.71 7.09-11.95 8.04q-.71.16-.25.72 5.33 6.49 14.02 15.02c2.87 2.81 8.2 4.41 8.33-1.58q.29-14.08.21-28.17c-.03-4.91-3.72-4.67-7.34-5.29q-.5-.08-.48-.59l.04-.73q.04-.65.69-.65h30.22q.62 0 .62.62v.86q0 .61-.62.64c-3.06.17-6.1.52-6.43 3.96q-.66 6.91-.42 13.51.03.79.67.33 9.95-7.19 19.15-15.09.51-.45.9-1.03.9-1.39-.75-1.48l-3.97-.22q-.71-.04-.71-.75v-.67q0-.68.68-.68h25.8q.41 0 .57.39.71 1.75-.85 1.86c-10.34.72-19.44 8.03-27.45 13.81a.42.42 0 0 0-.04.65q10.44 10.11 21.63 19.37 3.1 2.56 7.59 3.17.53.07.37-.44l-2.79-8.68q-.2-.65.46-.76l3.56-.59q.54-.08.82.38 6.96 11.24 20.06 10.37c7.28-.49 10.35-8.58 2.66-11.93q-3.38-1.47-12.16-4.12c-8.49-2.56-18.99-9.27-9.2-18.99 7.19-7.13 26.08-6.02 35.01-3.81q.47.12.58.59l2.04 9.07q.11.5-.41.56l-3.7.38q-.48.05-.69-.39c-3.57-7.65-13.29-11.1-20.28-6.64q-2.39 1.52-2.13 4.02c.35 3.36 5.88 5.49 8.61 6.17 5.94 1.48 14.95 3.99 18.98 8.18 4.24 4.4 3.29 10.61-1.38 14.39-9.55 7.76-26.39 6.98-37.25 3.98q-.5-.14-.81.28c-1.29 1.68-17.66 1.02-22.89.88q-.52-.01-.91-.37l-21.22-20.07a.35.35 0 0 0-.59.25q-.01 5.82.11 11.84.13 6.8 7.14 5.97.71-.09.73.62l.04 1.13q.02.63-.61.64-18.58.14-37.15.12c-11.73-.02-16.83-7.47-22.98-15.88-1.35-1.85-2.73-2.5-4.88-2.39q-.77.04-.74.81l.35 11.88q.02.6.45 1.01 2.55 2.47 6.27 2.14.68-.06.79.62l.17 1.04q.11.74-.63.74l-31.65-.13q-.65 0-.65-.65v-.76q0-.67.67-.71c2.84-.14 6.43-.41 7.07-3.76q.6-3.08.15-11.9-.01-.18-.07-.01c-4.98 14.94-21.48 18.91-35.41 18.74-13.46-.17-33.39-4.92-33.98-22.04q-.03-1.05-.49-.1l-10.83 22.61q-.22.46-.73.46h-9.84q-.62 0-.94-.54l-20.33-35.2a.39.39 0 0 0-.68.01L615 159.28q-.25.47-.78.47h-9.95q-.53 0-.77-.47l-20.46-39.84q-.24-.47-.77-.51c-4.05-.34-4.89 2.34-4.76 5.87q.48 13.25 1.25 26.44c.31 5.35 2.7 5.23 7.09 5.77q.63.07.73.7l.08.52q.13.78-.67.78-15.31-.05-30.6.04c-1.07 0-1.79-.23-1.39-1.48q.11-.37.49-.44l5.98-1.15q.67-.13.86-.79.71-2.4.69-6.43-.08-11.45-.31-22.87a.27.27 0 0 0-.5-.13l-19.53 32.18q-.25.43-.75.41l-4.8-.15q-.52-.01-.8-.46l-18.16-29.4q-.36-.58-.42.1-1.09 11.36-1.04 22.62c.04 7.73 9.59 4.22 10.1 6.97a.81.8 84.8 0 1-.78.95c-4.19 0-42.7.61-43.43-.27q-1.34-1.63.76-1.84l4.06-.4a1.64 1.63 73.3 0 0 1.28-2.39l-3.87-7.35q-.25-.48-.79-.48h-15.32q-.52 0-.74.48l-3.36 7.43a1.6 1.6 0 0 0 1.27 2.25l5.04.6q.6.07.57.67l-.03.87q-.01.56-.59.56-32.2-.45-64.38.3c-14.9.35-20.16-5.78-27.67-17.23q-1.23-1.89-4.27-1.29-.44.08-.47.53-.39 6.2.24 11.51c.47 3.92 4.45 3.64 7.3 4.29a.57.56 15.8 0 1 .41.73c-.5 1.46-1.51 1.07-2.76 1.06q-13.88-.08-27.75.09c-1.16.02-2.01-.31-1.45-1.66q.2-.47.71-.51c4.23-.34 7.04-.73 7.1-5.87q.19-16.9-.04-26.7c-.08-3.32-1-5-4.3-5.59a.5.5 0 0 0-.53.73c1.26 2.3 1.97 4.84 2.01 7.53.3 25.37-35.81 31.05-53.97 31.34q-17.83.29-42.7.07-.75 0-.66-.74l.19-1.58q.07-.65.72-.66c5.49-.12 10.79-.7 10.85-7.64.09-11.17-.07-22.35.1-33.52.13-8.04-2.66-9.33-9.91-9.33q-.62.01-.63-.62l-.03-2.35q-.01-.63.63-.64 35.1-.42 49.87.13c14.71.54 31.13 3.06 41.55 14.55q.35.39.86.37 25.96-.69 40.85.47c5.92.46 15.79 5.85 12.08 13.65-1.93 4.05-6.98 6.33-11.34 7.43a.5.5 0 0 0-.27.8c2.99 3.78 14.02 17.65 18.92 17.42q4.56-.22 4.59-5.67.1-20.52-.02-26.94c-.08-4.18-3.46-4.89-6.8-5.03q-.69-.03-.73-.72l-.05-.87q-.03-.7.67-.7h46.76q.57 0 .63.57l1.05 9.72q.07.6-.53.64l-3.27.27q-.55.04-.76-.47c-1.25-3.03-1.96-6.07-5.71-6.78q-6.09-1.16-12.47-.7-1.49.1-1.5 1.6v13.08q0 .69.68.67l10.95-.34q.68-.02 1.2-.46 1.92-1.61 1.92-4.08-.01-.47.46-.49l3.7-.14q.59-.02.59.57v14.34q0 .75-.75.75h-2.99q-.61 0-.79-.58c-.69-2.27-.47-4.77-3.56-5.2q-5.35-.74-10.74-.41-.5.03-.53.53-.52 9.07.16 14.1c.58 4.31 15.74 2.33 18.21 1.83q2.72-.55 4.48-3.5 10.46-17.51 20.77-35.11.26-.44.77-.5l5.88-.72q.48-.06.7.36 10.06 18.56 20.61 36.79.5.85.91 1.76.26.58.87.39c2.49-.76 3.68-27.44 3.77-31 .13-5.11-4.23-4.72-7.75-5.34q-.52-.09-.52-.62v-.9q0-.63.62-.63h23.11a1.21 1.2 72.3 0 1 .98.51l17.45 25.17a.35.34-46.6 0 0 .58-.02l15.15-24.93q.44-.73 1.3-.73h19.57q.61 0 .35-.55c-2.86-6.09-6-11.43-13.73-11.27q-.6.01-.61-.59l-.03-1.96q-.01-.63.63-.63h43.14q.42 0 .58.39c2.64 6.35-12.42-.85-8.46 7.97q6.66 14.82 13.09 29.06.47 1.03.96.02l18.09-36.97q.23-.47.76-.47h8.97q.52 0 .78.46l21.25 37.32a.34.33-47.4 0 0 .6-.03q6.75-14.2 12.37-28.75c2.59-6.69-6.3-5.77-9.95-5.99q-.55-.03-.55-.59v-1.76q0-.65.65-.65l32.73-.02q.64 0 .63.64l-.03 1.94q-.01.66-.66.65c-8.45-.08-10.72 4.67-14.82 11.79q-2.07 3.61-3.88 7.37-.32.67.26.2ZM293.1 107.52q-.28 18.63-.05 36.87c.05 4.24.75 8.55 5.19 9.42 17.49 3.42 31.78-11.07 29.02-28.56-2.52-15.98-18.88-21.14-33.04-19.01a1.32 1.31 86.4 0 0-1.12 1.28Zm419.93 10.73c-24.18-2.3-20.14 41.39 3.91 36.89 16.99-3.18 13.24-35.25-3.91-36.89Zm50.98 1.92-.02 15.83q0 .64.64.64c6.58-.01 13.04-1.32 13.95-8.81.89-7.33-7.85-10.33-13.69-8.79a1.18 1.18 0 0 0-.88 1.13Zm-390.97.94-.06 15.6q0 .58.57.66c18.54 2.42 17.86-20.96.83-17.86q-1.33.24-1.34 1.6Zm96.27 20.62a.37.37 0 0 0 .33.54l11.37-.04a.37.37 0 0 0 .33-.54l-5.73-11.57a.37.37 0 0 0-.66.01l-5.64 11.6ZM573.72 183.52l2.34.49a.45.45 0 0 1-.09.89l-11.72.03a.44.43 22.5 0 1-.31-.74l.36-.37q.12-.11.27-.08 1.16.22 2.03-.47.4-.32.4-.82v-10.71q0-.54-.53-.66-3.52-.75-4.99 2.3-.2.42-.63.6-.14.05-.27.04-.66-.06-.64-.72l.09-3.38q.01-.64.65-.57 9.33.97 18.67-.02.57-.06.6.51l.15 3.34q.03.59-.52.8c-1.14.43-2.02-3.82-6.06-2.85q-.54.13-.54.69l.06 10.87q0 .69.68.83ZM618.707 177.043a11.77 7.99-1.2 0 1-11.6 8.235 11.77 7.99-1.2 0 1-11.934-7.742 11.77 7.99-1.2 0 1 11.6-8.234 11.77 7.99-1.2 0 1 11.934 7.742Zm-10.625 6.946a6.75 5.17 80.6 0 0 3.999-7.503 6.75 5.17 80.6 0 0-6.203-5.815 6.75 5.17 80.6 0 0-3.999 7.503 6.75 5.17 80.6 0 0 6.203 5.815ZM659.49 171.22a1.45 1.45 0 0 0-.02 2.71q3.6 1.4 7.01 2.91c4.06 1.81 2.91 5.97-.68 7.33q-5.49 2.07-11.24.11-.46-.16-.58-.62l-.77-2.76q-.16-.56.37-.82c.91-.46 2.46 1.8 3.34 2.48 1.81 1.41 6.17 2.52 7.01-.54 1.07-3.93-13.28-3.32-9.46-9.78 2.08-3.51 9.1-3.12 12.43-2.36q.54.12.6.67l.32 2.89a.68.68 0 0 1-1.28.39q-2.28-4.37-7.05-2.61ZM708.87 170.88c-11.37-2.65-11.57 14.35-.93 12.95q.56-.07.56-.64v-3.02a1.24 1.23 4.3 0 0-1.05-1.22l-2.3-.35a.55.55 0 0 1 .08-1.1H716q.51 0 .5.5v.3q0 .22-.21.25c-2.66.35-1.67 3.37-1.83 5.17q-.04.52-.54.64c-5.41 1.33-19.86 2.05-20.36-6.56-.52-8.94 14.53-9.08 20.03-7.8q.46.11.51.57l.42 3.35a.65.64 25.4 0 1-1.19.42c-1.09-1.75-2.39-2.97-4.46-3.46ZM477.14 183.45l2.47.46q.77.14.27.76c-.29.36-17.32.33-19.96.43a.52.51 34.3 0 1-.19-1l1.49-.52q.5-.17.4-.69c-.66-3.64-3.77-2.46-6.39-2.66q-.7-.06-.94.6l-.88 2.37q-.3.8.53.59 1-.26 1.73.35.69.58-.21.69c-1.09.12-7.52.55-7.95-.28q-.31-.59.36-.65c5.12-.4 8.01-16.19 12.45-14.23q.44.19.67.62 2.86 5.4 5.86 10.71c1.61 2.86 3.62 3.85 6.64 2.39q.57-.28.57-.9l.04-10.07a1.49 1.48 88.7 0 0-1.55-1.49q-1.04.05-1.75-.56-.72-.62.22-.62h7.06q.53 0 .94.34l10.57 8.84a.38.37 19.6 0 0 .62-.29c-.05-2.36.92-8.22-2.87-7.86q-.4.04-.68-.25l-.35-.34q-.43-.44.19-.44h8.79q2.48 0 .11.72l-2.42.74q-.6.18-.61.8l-.17 11.58a1.85 1.85 0 0 1-3.05 1.38l-12.35-10.52a.38.38 0 0 0-.63.3l.31 7.93q.02.65.66.77Zm-21.61-5.15a.39.39 0 0 0 .35.55l3.11.01a.39.39 0 0 0 .36-.56l-1.55-3.33a.39.39 0 0 0-.71 0l-1.56 3.33ZM524.35 178.27a.45.45 0 0 0 .77-.02l4.65-8.05q.26-.45.78-.45h7.51q.59 0 .42.57c-.31 1.07-2.52-.43-2.51 2.17q.03 5.14.46 10.24.04.52.51.74c3.27 1.59 5.18.05 6.85-2.88q3.04-5.31 6.13-10.57.31-.52.92-.52h1.37q.49 0 .72.44c2.21 4.16 6.33 13.62 9.45 13.89q.37.04.37.41v.33q0 .28-.28.29l-10.1.19q-1.08.02-.44-.85.49-.68 1.43-.41.91.26.52-.6l-1.08-2.4q-.23-.53-.81-.53l-4.49-.02q-.76 0-1.06.7l-.79 1.8q-.34.78.51.93l1.45.25a.49.49 0 0 1-.08.98l-19.11.04q-.99 0-.39-.79.53-.69 1.53-.35 1.22.42 1.2-.87l-.12-9.19q-.01-1.03-.53-.14l-6.04 10.45a1.5 1.5 0 0 1-2.6.01l-5.65-9.66a.31.3 30 0 0-.57.15v8.22q0 .62.61.72 1.23.22 2.4.62 1.84.62-.1.74-4.18.27-8.33-.22a.32.31 41.6 0 1-.04-.62l1.83-.42q.58-.13.68-.71.71-4.29.88-8.58c.2-5.01-1.87-2.18-2.71-3.97q-.28-.58.37-.58h7.38q.52 0 .81.43l5.32 8.09Zm23.2.11a.39.39 0 0 0 .36.56l3.2-.04a.39.39 0 0 0 .34-.57l-1.64-3.3a.39.39 0 0 0-.7.01l-1.56 3.34Z"/><path fill="#00468d" d="M497.7 183.76c2.89.15 1.81-9.96 1.78-11.94q-.01-.58-.58-.74l-1.97-.56q-.2-.05-.19-.25.01-.14.01-.27 0-.25.25-.25h10.75q1.31 0 .19.68-.9.54-1.96.77a.59.59 0 0 0-.47.58l-.01 10.78q0 .74.72.94.84.23 1.69.49 2.08.66-.1.79-5.36.32-10.72.14-.86-.02-.25-.64l.31-.31q.23-.22.55-.21ZM591.42 183.69q.9-.06 1.63.4 1.14.73-.22.8-5.31.25-10.6-.23-2.65-.24-.04-.78l1.47-.3q.59-.12.59-.72v-11.03q0-.6-.58-.75l-1.62-.43q-.31-.09-.3-.41v-.26q0-.23.23-.23h10.58q.6 0 .42.57c-.38 1.21-2.45-.39-2.6 2.6q-.3 5.82.27 10.14.09.68.77.63ZM625.55 174.92l.32 7.78q.03.69.72.8l2.65.42q.59.1.19.54c-.75.82-8.09.46-8.43.44q-.4-.02-.49-.41c-.12-.58 1.96-.94 2.42-1.21q.44-.26.45-.77l.15-9.99a1.48 1.48 0 0 0-1.4-1.5q-1.05-.06-2-.5-1.61-.76.17-.76l7.13-.01q.52 0 .91.32l10.58 8.87a.45.45 0 0 0 .74-.37l-.38-6.53q-.05-.73-.76-.9l-2.6-.61q-.19-.05-.18-.24.01-.15.01-.29 0-.25.25-.25h8.36q.7 0 .34.6l-.13.23q-.13.21-.37.19c-1.76-.17-2.42.82-2.43 2.49q-.03 5.45-.02 10.89 0 .58-.55.74c-1.25.36-2.49.27-3.56-.64q-5.66-4.86-11.34-9.69-.79-.67-.75.36ZM679.82 176.55l6.17-4.87q.61-.48-.13-.7-.72-.21-1.35-.57-1.18-.68.18-.67l9.13.03a.34.34 0 0 1 .07.67q-5.27 1.09-9.31 4.7-.44.4-.06.85 4.11 4.99 9.67 8.25a.39.39 0 0 1-.19.73h-6.89q-.59 0-1-.43l-6.27-6.46a.34.34 0 0 0-.59.24v4.36q0 .61.59.78l1.5.42q.44.12.45.57c.03.98-8.95.53-10.49.4q-2.7-.21-.08-.9l1.7-.44q.58-.14.58-.74v-10.93q0-.59-.57-.75l-2.02-.58q-.18-.06-.17-.25.01-.13.01-.26 0-.25.25-.25h10.49q.57 0 .28.5l-.18.29q-.04.08-.13.1l-1.63.44q-.58.15-.58.75v4.44q0 .73.57.28Z"/><rect width="190.66" height="2.04" x="255.55" y="176.75" fill="#00468d" rx=".84"/><rect width="190.72" height="2" x="718.56" y="176.75" fill="#00468d" rx=".86"/></svg>