<svg xmlns="http://www.w3.org/2000/svg" viewBox="0 0 2774 700"><path fill="#e81127" d="M1369 641.43a.57.57 0 0 1-.57.57H38.57a.57.57 0 0 1-.57-.57V45.57a.57.57 0 0 1 .57-.57h1329.86a.57.57 0 0 1 .57.57v595.86Zm-780.77-82.95q-.32-4-.63-6.06-31.99-210.89-63.98-421.86-.08-.56-.65-.56h-90.1a.3.29-85.4 0 0-.29.25l-65.93 431.12q-.1.63.54.63h80.36q.56 0 .62-.56l7.61-79.23a.51.5 2.4 0 1 .51-.46h36.43a.53.51 86.9 0 1 .51.47l8.15 79.24q.05.54.59.54h170.78q.5 0 .5-.5V419.13q0-.63.63-.63h4.75q.66 0 .79.64l30.17 142.33q.11.53.65.53h83.88a.36.35-6.4 0 0 .35-.43l-39.95-173.82a.78.76-30.2 0 1 .2-.72c30.22-32.11 35.13-82.01 33.45-123.6-2.32-57.27-22.85-119.52-88.43-129.85q-9.75-1.53-13.82-1.54-48.14-.11-96.4-.01-.51 0-.51.51-.02 211.87-.01 423.71 0 1.33-.33 2.28-.36 1.04-.44-.05ZM183.95 314.21a.31.3-29.2 0 1 .55.15c3 38.52 6.16 76.78 11.21 114.98q8.74 66.16 17.37 132.29a.43.42 86.1 0 0 .42.37h40.68a.27.27 0 0 0 .27-.24c10.63-82.28 22.74-162.15 28.41-247.41.02-.27.41-.92.63-1.08a.51.51 0 0 1 .8.42l-.41 247.75q0 .56.56.56H365a.5.5 0 0 0 .5-.5v-429q0-.5-.5-.5H263.48a.37.37 0 0 0-.37.34L240.1 360.3q-.01.08-.08.1-.14.06-.29.1-.21.07-.23-.16l-22.99-227.86a.54.53 87 0 0-.53-.48H114.5q-.5 0-.5.5v429q0 .5.5.5h68.98q.5 0 .5-.5c.05-81.98.64-164.03-.5-246q-.01-.64.47-1.29Zm807.71-180.93q.28.49.28.97l.08 427.25q0 .5.5.5h157.52a.47.47 0 0 0 .47-.47l-.01-74.94q0-.59-.59-.59H1080q-1 0-1-1V371.25q0-1 1-1h48.63q.43 0 .44-.44l.25-72.02a.79.78 90 0 0-.78-.79h-49.04a.5.5 0 0 1-.5-.5v-85a.5.5 0 0 1 .5-.5h69.5q.5 0 .5-.5v-78q0-.5-.5-.5H910.73q-.66 0-.72.66-9.35 119.99-19.13 239.02-2.05 24.96-4.13 60.56c-.04.69.38 1.8-.69 2.05a.39.39 0 0 1-.47-.35c-6.93-100.53-15.55-200.97-23.53-301.43a.55.55 0 0 0-.55-.51h-86.45q-.7 0-.6.7l63.02 430.83q.07.47.54.47h89.99a.4.38 4.2 0 0 .39-.32l63.06-430.36a.11.11 0 0 1 .2-.04Zm322.09 353.17a.45.45 0 0 0-.45-.45h-66.85a.45.45 0 0 1-.45-.45v-353.1a.45.45 0 0 0-.45-.45h-86.1a.45.45 0 0 0-.45.45v429.1a.45.45 0 0 0 .45.45h153.85a.45.45 0 0 0 .45-.45v-75.1Z"/><rect width="1273" height="31" x="1448" y="45" fill="#e81127" rx=".57"/><path fill="#e81127" d="M1478.56 333.2c-11.35-8.78-21.17-21.83-25.62-34.68-4.25-12.25-4.86-24.36-4.91-39.23q-.08-28.52.02-57.04c.1-29.46 9.12-60.07 38.96-71.99 20.14-8.05 43.43-6.41 64.99-6.25 47.35.35 72.36 27.87 72.73 74.81q.33 41.06.28 82.18a.5.49-90 0 1-.49.5h-60.29a.48.47 0 0 1-.48-.47q-.01-37.85 0-75.78c.01-21.91-13.86-24.61-31.76-24.12q-16.03.44-20.54 12.94-1.63 4.52-1.68 16.69-.14 35.78 0 46.25c.27 18.94 9.86 25.9 25.06 37.7q28.14 21.84 56.31 43.67c25.96 20.11 34.89 40.2 35.11 72.81q.31 46.76-.21 77.06c-.57 32.38-13.91 61.06-47.07 70.14-18.65 5.11-38.83 3.7-57.97 3.59-12.56-.07-26.04-2.22-37.11-7.44-30.37-14.3-35.8-45.16-35.86-75.73q-.08-43.38-.01-86.85a.46.46 0 0 1 .46-.46h59.54a.47.47 0 0 1 .47.47q.01 44.22.07 88.53c.02 15.69 6.84 23.15 22.32 24.19 18.46 1.24 33.3-1.68 33.35-23.58q.06-31.06.02-62.12c-.03-17.83-8.13-25.6-22.35-36.67q-31.64-24.6-63.34-49.12ZM2443.5 123.97c28 .09 54.96 9.53 66.93 37.12 6.31 14.54 7.52 29.89 7.53 47.23q.1 139.56 0 279.12 0 11.08-2.95 23.19c-8.43 34.6-32.58 50.39-67.58 51.07q-19.83.38-39.68.26c-13.1-.08-27.24-2.28-38.7-7.96-29.82-14.8-35.27-45.34-35.28-75.82q-.07-216.06-.01-276.18c.01-12.15 1.76-25.71 6.2-37.33 17.51-45.88 64.07-40.83 103.54-40.7Zm12.23 85.41c0-28.38-14.37-28.06-38.21-27.38-16.7.48-21.5 11.46-21.5 26q-.03 135.74-.01 271.49c0 24.89 17.47 25.89 37.05 24.67 11.38-.72 19.13-4.17 21.61-15.66q1.07-4.95 1.07-6.81.03-136.16-.01-272.31ZM2639.19 181.31c-12.84-.51-26.74-1.03-31.73 12.77q-1.64 4.51-1.69 16.66-.14 35.8 0 46.27c.27 18.94 9.86 25.9 25.06 37.7q28.14 21.84 56.31 43.67c25.96 20.11 34.89 40.2 35.11 72.81q.31 46.76-.21 77.06c-.57 32.38-13.91 61.06-47.07 70.14-18.65 5.11-38.83 3.7-57.97 3.59-12.56-.07-26.04-2.22-37.11-7.44-30.37-14.3-35.8-45.16-35.86-75.73q-.08-43.38-.01-86.85a.46.46 0 0 1 .46-.46h59.54a.47.47 0 0 1 .47.47q.01 44.22.07 88.53c.02 15.69 6.84 23.15 22.32 24.19 18.46 1.24 33.3-1.68 33.35-23.58q.06-31.06.02-62.12c-.03-17.83-8.13-25.61-22.35-36.67q-31.64-24.6-63.34-49.12c-20.4-15.78-29.95-37.72-30.25-64.02q-.38-33.46-.26-66.93c.1-29.46 9.12-60.07 38.96-71.99 20.14-8.05 43.43-6.41 64.99-6.25 47.36.35 72.35 27.87 72.73 74.81q.33 41.06.28 82.18a.5.49-90 0 1-.49.5h-60.29a.48.47 0 0 1-.48-.47q-.01-37.85.01-75.78c0-13.23-6.16-23.36-20.57-23.94ZM1751.38 558h-61.01a.62.62 0 0 1-.62-.62V188.12a.62.62 0 0 0-.62-.62h-54.76a.62.62 0 0 1-.62-.62v-58.26a.62.62 0 0 1 .62-.62h173.01a.62.62 0 0 1 .62.62v58.26a.62.62 0 0 1-.62.62h-54.76a.62.62 0 0 0-.62.62v369.26a.62.62 0 0 1-.62.62ZM1866.06 557.11c-33.67-10.77-43.05-43.42-43.05-75.05q-.02-176.78-.01-353.56a.5.5 0 0 1 .5-.5h61.24q.51 0 .51.51.01 175.88 0 351.74c0 20.32 12.61 24.32 30 24.12 15.37-.17 27.46-4.5 27.47-22.94q.06-176.46.02-352.92a.51.51 0 0 1 .51-.51h61.23q.51 0 .51.51.03 178.5-.01 356.99c-.01 45.45-23.2 75.22-70.55 76.21-22.53.47-46.61 2.36-68.37-4.6ZM2189.3 147.45c22.15 19.09 25.92 50.32 25.93 77.51q.07 191.51.01 241.54c-.06 54.52-25.67 90.79-83.81 91.2q-49.05.35-98.18.32a.5.5 0 0 1-.5-.5V128.48a.48.48 0 0 1 .48-.48q47.46-.02 95.02.07c22.02.04 43.98 4.68 61.05 19.38Zm-36.33 73.86c-.01-18.74-9.19-34.06-29.56-35.12q-14.02-.73-28.01-.37a.42.42 0 0 0-.4.42v313.29q0 .62.62.64 12.1.29 24.19-.04c23.99-.65 33.22-15.28 33.22-37.88q.01-120.47-.06-240.94Z"/><rect width="62.26" height="430" x="2243" y="128" fill="#e81127" rx=".57"/><path fill="#e81127" d="M673.62 351.62a.36.36 0 0 1-.37-.36V211.75q0-.49.49-.55 6.9-.82 12.04.72c20.98 6.29 16.36 79.95 15.04 96.84-.92 11.69-3.14 35.86-15.48 41.75-3.3 1.57-7.87.92-11.72 1.11ZM475.43 274.37l13.88 145.96a.38.38 0 0 1-.38.42h-28.06a.38.38 0 0 1-.38-.42l14.19-145.97a.38.38 0 0 1 .75.01Z"/><rect width="1273" height="31" x="1456" y="611" fill="#e81127" rx=".57"/></svg>