<svg version="1.1" xmlns="http://www.w3.org/2000/svg" viewBox="-348.2 -1575.7 8360.6 2423.4"><desc>Created with Snap</desc><defs></defs><g><g transform="matrix(56.5313,0,0,56.5313,5896.2,-1268.5)"><g display="none"><rect x="-69.333" y="-18.667" display="inline" fill="#f4b41a" width="473.333" height="236" style=""></rect></g><g display="none"><g display="inline"><g><polygon fill="#f4b41a" points="32,15.976 15.976,32 0,16.024    " style=""></polygon></g><g><polygon points="23.347,15.989 15.989,23.347 8.653,16.011    " fill="#f4b41a" style=""></polygon></g><g><polygon fill="#f4b41a" points="0,16.024 16.024,0 32,15.976    " style=""></polygon></g><g><polygon fill="#f4b41a" points="8.653,16.011 16.011,8.653 23.347,15.989    " style=""></polygon></g></g></g><g display="none"><g display="inline"><path fill="#f4b41a" d="M16,1c8.271,0,15,6.729,15,15s-6.729,15-15,15S1,24.271,1,16S7.729,1,16,1 M16,0C7.163,0,0,7.163,0,16    s7.163,16,16,16s16-7.163,16-16S24.837,0,16,0L16,0z" style=""></path></g><g display="inline"><path fill="#f4b41a" d="M13.034,6.153l2.259,2.259L16,9.119l0.707-0.707l2.259-2.259l0.744,0.744l-2.259,2.259l-0.707,0.707    l0.707,0.707l2.259,2.259l-0.744,0.744l-2.259-2.259L16,10.607l-0.707,0.707l-2.259,2.259l-0.744-0.744l2.259-2.259l0.707-0.707    l-0.707-0.707L12.29,6.897L13.034,6.153 M18.966,4.738L16,7.705l-2.966-2.966l-2.158,2.158l2.966,2.966l-2.966,2.966l2.158,2.158    L16,12.021l2.966,2.966l2.158-2.158l-2.966-2.966l2.966-2.966L18.966,4.738L18.966,4.738z" style=""></path></g><g display="inline"><path fill="#f4b41a" d="M13.034,18.427l2.259,2.259L16,21.393l0.707-0.707l2.259-2.259l0.744,0.744l-2.259,2.259l-0.707,0.707    l0.707,0.707l2.259,2.259l-0.744,0.744l-2.259-2.259L16,22.881l-0.707,0.707l-2.259,2.259l-0.744-0.744l2.259-2.259l0.707-0.707    l-0.707-0.707l-2.259-2.259L13.034,18.427 M18.966,17.013L16,19.979l-2.966-2.966l-2.158,2.158l2.966,2.966l-2.966,2.966    l2.158,2.158L16,24.295l2.966,2.966l2.158-2.158l-2.966-2.966l2.966-2.966L18.966,17.013L18.966,17.013z" style=""></path></g></g><g display="none"><g display="inline"><rect x="2" y="2" fill="#f4b41a" width="28" height="28" style=""></rect></g><g display="inline"><g><path fill="#f4b41a" d="M16,31.5C7.453,31.5,0.5,24.547,0.5,16S7.453,0.5,16,0.5S31.5,7.453,31.5,16S24.547,31.5,16,31.5z" style=""></path></g><g><g><path d="M16,1c8.271,0,15,6.729,15,15s-6.729,15-15,15S1,24.271,1,16S7.729,1,16,1 M16,0C7.163,0,0,7.163,0,16s7.163,16,16,16      s16-7.163,16-16S24.837,0,16,0L16,0z" fill="#f4b41a" style=""></path></g></g></g><g display="inline"><g><polygon fill="#f4b41a" points="16,11.314 13.034,14.28 11.582,12.829 14.549,9.863 11.582,6.896 13.034,5.445 16,8.412      18.966,5.445 20.418,6.896 17.451,9.863 20.418,12.829 18.966,14.28    " style=""></polygon></g><g><path d="M13.034,6.153l2.259,2.259L16,9.119l0.707-0.707l2.259-2.259l0.744,0.744l-2.259,2.259l-0.707,0.707l0.707,0.707     l2.259,2.259l-0.744,0.744l-2.259-2.259L16,10.607l-0.707,0.707l-2.259,2.259l-0.744-0.744l2.259-2.259l0.707-0.707l-0.707-0.707     L12.29,6.897L13.034,6.153 M18.966,4.738L16,7.705l-2.966-2.966l-2.158,2.158l2.966,2.966l-2.966,2.966l2.158,2.158L16,12.021     l2.966,2.966l2.158-2.158l-2.966-2.966l2.966-2.966L18.966,4.738L18.966,4.738z" fill="#f4b41a" style=""></path></g></g><g display="inline"><g><polygon fill="#f4b41a" points="16,23.589 13.034,26.555 11.582,25.104 14.549,22.137 11.582,19.171 13.034,17.72 16,20.686      18.966,17.72 20.418,19.171 17.451,22.137 20.418,25.104 18.966,26.555    " style=""></polygon></g><g><path d="M13.034,18.427l2.259,2.259L16,21.393l0.707-0.707l2.259-2.259l0.744,0.744l-2.259,2.259l-0.707,0.707l0.707,0.707     l2.259,2.259l-0.744,0.744l-2.259-2.259L16,22.881l-0.707,0.707l-2.259,2.259l-0.744-0.744l2.259-2.259l0.707-0.707l-0.707-0.707     l-2.259-2.259L13.034,18.427 M18.966,17.013L16,19.979l-2.966-2.966l-2.158,2.158l2.966,2.966l-2.966,2.966l2.158,2.158     L16,24.295l2.966,2.966l2.158-2.158l-2.966-2.966l2.966-2.966L18.966,17.013L18.966,17.013z" fill="#f4b41a" style=""></path></g></g></g><g><g><path d="M0,16.024L15.976,32L32,15.976L16.024,0L0,16.024z M15.989,23.347l-7.336-7.336l14.694-0.022L15.989,23.347z" fill="#f4b41a" style=""></path></g></g><desc>Created with Snap</desc><defs></defs></g><g><g transform="matrix(1,0,0,-1,0,0)"><path d="M75 712L75 709Q80 710 84 710Q89 711 94 711Q112 711 114 714Q117 718 126 718Q134 718 141 715Q148 712 156 712Q161 711 166 712Q171 714 176 714L191 714Q194 714 196 713Q199 712 202 712Q206 712 209 713Q212 714 216 714Q221 714 223 712Q226 710 230 709Q235 708 238 711Q242 715 248 710Q259 715 274 717Q290 720 301 712Q312 718 321 715Q330 712 341 712Q344 712 346 713Q349 714 352 714Q365 714 377 710Q389 707 401 707Q411 707 419 711Q428 715 436 707Q440 707 442 709Q445 712 449 712Q453 712 456 710Q459 709 462 709Q465 709 467 710Q470 712 473 712Q478 712 483 710Q489 709 494 709Q502 709 508 711Q515 714 522 716Q530 718 532 717Q535 716 542 716Q544 716 547 717Q550 718 552 718Q555 718 560 716Q565 715 568 714Q572 715 575 716Q579 718 583 718Q586 718 590 716Q595 715 599 714Q610 711 618 708Q627 706 635 695Q634 689 631 688Q629 688 626 685Q628 677 630 671Q632 666 630 657Q626 650 620 646Q615 642 610 636Q602 635 596 633Q590 631 582 636Q573 635 565 632Q557 630 551 635Q538 635 525 632Q513 629 499 629Q496 629 493 630Q491 631 489 631Q484 632 477 629Q471 627 465 627Q451 627 437 629Q424 631 413 637Q406 634 398 633Q391 633 383 633Q376 634 369 633Q362 633 355 630Q353 622 355 615Q357 609 357 601Q355 591 356 589Q357 588 358 586Q359 583 359 571Q360 560 360 545Q360 531 359 518Q359 506 359 502Q359 497 358 493Q357 489 357 484Q357 477 362 470Q364 465 363 462Q363 459 363 454Q368 446 368 440Q369 434 370 430Q374 419 372 417Q371 415 370 407Q375 397 374 394Q374 391 374 387Q374 382 376 377Q379 372 381 367Q376 358 377 348Q378 339 372 330Q374 325 374 321Q375 318 379 314Q379 311 378 309Q377 307 375 304Q373 301 374 298Q375 295 375 293Q375 287 373 285Q372 283 371 280Q370 277 370 272Q371 267 375 257Q373 252 373 247Q373 243 371 238Q374 230 373 219Q372 209 372 201Q372 194 373 187Q374 181 374 173Q374 160 372 146Q371 133 379 122Q376 116 377 113Q379 110 379 105Q379 100 386 97Q382 88 387 81Q392 75 392 66Q392 62 391 58Q390 55 389 51Q389 46 389 42Q390 39 390 35Q390 27 386 24Q382 22 384 17Q378 14 372 12Q367 11 366 3Q355 3 348 0Q341 -3 329 -1Q327 3 319 9Q312 14 309 17Q306 21 305 24Q304 28 303 32Q302 36 299 42Q291 47 288 55Q292 68 296 73Q293 79 290 82Q288 85 292 92Q292 97 290 101Q288 105 288 110Q290 117 289 123Q289 130 287 134Q281 157 283 170Q285 183 285 197Q285 202 282 204Q279 207 279 211Q279 216 281 217Q283 218 285 220Q287 223 286 232Q285 241 283 251Q282 261 280 270Q279 280 279 284Q279 290 287 292Q286 295 280 301Q285 306 287 314Q289 323 285 330Q287 333 288 336Q290 340 290 343Q290 351 286 357Q283 363 283 370Q283 373 284 375Q286 378 286 381Q286 385 283 388Q281 391 281 395Q281 398 282 400Q283 403 283 406Q284 416 280 427Q277 439 272 447Q275 450 275 453Q276 457 278 460Q275 465 276 470Q277 475 277 481Q277 484 276 486Q275 489 275 492Q275 500 277 507Q279 514 279 522Q279 536 275 555Q272 574 272 585Q272 590 272 594Q273 598 273 603Q273 611 270 619Q268 628 268 636Q252 641 243 638Q234 635 224 635Q208 635 191 638Q174 642 159 640Q156 639 152 636Q149 633 143 638Q138 637 134 636Q131 635 126 639Q119 635 110 635Q101 635 93 633Q97 632 96 639Q96 646 96 647Q94 639 93 634Q93 630 83 630Q71 626 67 627Q63 629 55 628Q43 627 37 625Q31 624 28 618Q21 620 14 622Q7 625 1 620Q-13 628 -27 632Q-28 633 -31 638Q-33 644 -36 650Q-38 656 -40 661Q-41 666 -41 667L-36 685Q-35 687 -31 689Q-27 691 -25 692Q-20 695 -19 700Q-17 705 -10 706Q-8 706 -5 704Q-2 702 0 701Q5 704 7 703Q9 702 14 701Q16 701 22 702Q29 703 31 704Q35 710 38 711Q41 713 48 709Q59 711 62 708Q65 709 68 710Q71 712 75 712ZM1182 -1Q1175 6 1172 9Q1169 13 1168 18Q1152 25 1146 39Q1141 53 1130 64L1130 77Q1125 82 1120 87Q1116 92 1111 96Q1115 108 1109 117Q1103 127 1101 138Q1096 142 1092 146Q1089 151 1087 157Q1080 158 1071 157Q1062 157 1053 156Q1044 155 1035 155Q1027 156 1022 161Q1014 162 1005 163Q997 164 989 166Q967 161 948 163Q929 165 915 159Q911 161 906 161Q901 162 898 166Q888 160 882 163Q877 166 867 166Q863 166 859 164Q855 163 851 161Q843 164 834 166Q826 168 817 168Q812 168 808 166Q805 164 801 164Q796 164 791 165Q787 167 782 164Q771 166 766 162Q761 159 756 164Q749 159 741 158Q733 157 727 153Q723 144 722 144Q721 144 720 142Q715 137 714 130Q714 124 706 122Q704 111 699 103Q694 95 689 86Q690 82 690 79Q691 76 691 72Q686 62 688 60Q690 59 689 57Q682 52 682 48Q682 45 677 47Q677 27 666 18Q655 10 644 -3Q636 -3 629 -5Q623 -6 615 -8Q609 -4 601 -2Q594 0 589 5Q583 20 579 23Q576 26 574 34Q579 47 586 55Q593 64 594 79Q596 83 599 86Q603 89 605 94Q607 98 607 102Q608 106 610 109Q617 117 618 121Q619 125 625 127Q623 138 630 141Q637 145 637 153Q637 163 633 171Q629 180 629 190Q629 197 632 200Q636 204 640 207Q645 210 649 213Q653 217 655 222L665 222Q673 232 678 244Q683 256 689 267Q691 271 690 276Q689 282 691 285Q698 293 697 296Q696 300 703 302Q702 311 704 314Q707 317 708 324Q711 328 714 330Q718 333 722 335L722 348Q726 350 728 353Q730 357 734 358Q735 362 734 364Q734 367 739 367Q741 371 740 374Q739 378 741 382Q743 387 747 390Q751 394 751 399Q749 400 749 402Q750 404 751 407Q753 410 753 413Q754 416 753 421Q757 424 758 427Q760 431 763 434Q761 444 763 451Q765 458 767 467Q774 470 777 475Q776 482 778 488Q780 495 782 501Q785 507 786 512Q787 518 784 525Q787 533 792 536Q798 540 796 551Q803 557 810 566Q818 576 815 586Q823 597 827 609Q831 622 829 636Q834 646 839 659Q845 672 844 683Q850 685 850 690Q851 696 853 701Q855 703 857 705Q860 708 860 712Q866 717 868 723Q871 730 875 735Q878 741 882 746Q886 751 889 757L903 757Q905 762 909 763Q914 765 919 765Q925 765 931 764Q937 764 941 766Q944 762 947 760Q951 758 954 756Q957 754 959 751Q961 748 960 742Q964 741 966 739Q968 737 972 737Q970 732 973 728Q977 725 977 720Q977 718 974 715Q972 712 972 707Q972 699 975 693Q978 687 982 681Q981 673 979 670Q977 668 982 660Q981 653 982 652Q983 651 984 650Q985 649 985 646Q986 644 986 638Q993 628 992 623Q992 619 999 618Q999 608 1003 601Q1008 594 1015 588Q1015 580 1018 575Q1021 570 1020 562Q1022 554 1030 549Q1028 542 1029 535Q1031 528 1034 521Q1037 515 1040 508Q1044 501 1046 495Q1052 470 1059 451Q1066 433 1082 413Q1081 411 1082 406Q1083 401 1080 402Q1084 397 1091 385Q1098 374 1096 367Q1103 355 1103 346Q1104 338 1106 330Q1114 322 1117 311Q1120 300 1132 296Q1130 282 1138 267Q1147 253 1149 239Q1157 231 1161 220Q1166 210 1173 200Q1172 195 1172 187Q1172 180 1180 181Q1179 175 1181 171Q1183 167 1185 164Q1188 161 1190 158Q1193 155 1194 151Q1202 143 1206 140L1206 122Q1211 117 1216 111Q1222 105 1230 103Q1225 87 1232 77Q1239 67 1239 59Q1239 55 1238 52Q1237 50 1237 47Q1237 43 1238 40Q1239 38 1239 35Q1239 24 1233 17Q1227 10 1218 6Q1210 2 1200 0Q1190 -1 1182 -1ZM984 397Q984 411 977 422Q971 434 972 447Q967 448 967 452Q967 457 963 458Q967 465 961 473Q956 482 958 493Q955 495 953 499Q951 503 949 506Q946 526 934 541Q923 557 918 575Q914 576 911 578Q909 580 906 582Q904 578 901 577Q898 577 896 575Q891 570 891 562Q892 554 884 547Q884 544 884 540Q884 536 887 534Q879 532 879 527Q879 522 877 517Q871 505 872 500Q873 496 872 491L863 475Q859 473 857 469Q855 466 853 462Q848 454 845 448Q842 443 844 432Q839 422 837 420Q835 418 834 415Q833 411 833 407Q834 403 834 400Q826 390 823 378Q820 366 820 354Q817 349 815 346Q814 344 813 342Q813 341 812 339Q812 337 810 332Q801 323 792 308Q784 293 784 285Q781 284 779 282Q777 280 775 278Q776 269 773 262Q771 256 770 248Q775 245 782 244Q789 243 794 248Q795 246 797 245Q800 245 803 245Q806 245 808 244Q811 244 810 241Q830 242 851 243Q872 244 891 237Q910 240 930 241Q951 242 970 237Q986 243 1002 242Q1018 241 1034 244Q1032 249 1038 250Q1044 251 1044 261Q1044 269 1038 277Q1033 285 1030 293Q1028 298 1027 303Q1027 308 1025 313Q1023 316 1020 318Q1017 320 1015 324Q1008 343 1001 361Q995 380 984 397ZM2173 47Q2175 42 2170 42Q2166 42 2163 42Q2166 37 2164 34Q2163 31 2160 28Q2158 26 2155 23Q2153 20 2153 16Q2137 18 2134 15Q2131 13 2123 1Q2113 -1 2106 -5Q2098 -4 2094 -1Q2091 3 2080 1Q2082 12 2071 12Q2072 19 2071 25Q2071 31 2063 34Q2069 40 2065 47Q2061 55 2062 63Q2062 65 2063 67Q2064 70 2064 73Q2060 81 2062 83Q2065 85 2065 88Q2069 108 2069 123Q2069 139 2069 153Q2069 157 2067 158Q2065 159 2062 161Q2062 166 2065 167Q2069 168 2070 172Q2071 179 2068 185Q2066 191 2067 198Q2070 212 2067 217Q2065 223 2066 228Q2066 232 2067 235Q2069 238 2069 241Q2069 245 2068 248Q2067 251 2067 254Q2067 259 2068 264Q2069 269 2069 274Q2069 279 2068 283Q2067 288 2064 291Q2069 300 2067 317Q2065 334 2067 345Q2070 357 2067 360Q2065 363 2066 367Q2066 371 2067 374Q2069 377 2069 381Q2069 386 2066 390Q2064 394 2065 399Q2069 420 2064 431Q2060 442 2065 454Q2065 458 2063 460Q2061 462 2059 465Q2060 475 2057 477Q2055 480 2053 488Q2050 503 2052 518Q2055 533 2051 547Q2049 552 2046 555Q2043 558 2045 564Q2040 562 2036 558Q2032 555 2027 553Q2027 545 2024 540Q2022 536 2024 527Q2021 521 2014 517L2008 497Q2007 495 2004 494Q2002 493 2000 491L1995 478Q1994 475 1994 472Q1995 470 1995 468Q1995 465 1992 460Q1990 455 1986 449Q1982 444 1978 439Q1975 434 1974 432Q1968 422 1965 420Q1962 419 1961 417Q1959 415 1959 411Q1959 408 1958 406Q1956 401 1950 392Q1945 384 1940 382Q1940 378 1939 373Q1938 369 1932 369Q1934 358 1928 351Q1922 344 1926 337Q1921 337 1918 334Q1916 332 1914 329Q1912 326 1910 323Q1908 320 1904 319Q1906 313 1904 305Q1903 298 1895 296Q1894 291 1893 288Q1892 285 1894 280Q1887 278 1887 270Q1887 263 1879 257Q1881 247 1878 243Q1876 239 1875 231Q1869 229 1860 216Q1852 204 1850 198Q1841 194 1841 191Q1841 188 1840 185Q1838 183 1836 181Q1834 179 1832 177Q1829 170 1828 161Q1828 153 1828 146Q1824 146 1822 143Q1821 140 1818 138Q1818 133 1817 125Q1817 117 1812 114Q1816 106 1811 95Q1806 85 1808 77Q1800 72 1792 64Q1785 57 1776 52Q1768 47 1759 46Q1750 45 1740 53Q1737 54 1735 52Q1733 51 1730 51Q1725 51 1719 53Q1714 55 1709 53Q1708 63 1703 71Q1698 80 1699 91Q1699 95 1701 98Q1704 101 1704 105Q1705 113 1702 120Q1700 128 1694 133Q1693 141 1692 150Q1691 159 1684 164Q1685 176 1680 185Q1675 194 1667 202Q1667 204 1664 211Q1662 218 1658 225Q1655 233 1651 239Q1648 246 1647 248Q1645 252 1643 257Q1642 262 1636 261Q1637 275 1629 277Q1621 280 1616 287Q1610 295 1606 304Q1602 314 1594 322Q1593 331 1587 336Q1582 341 1574 345Q1576 353 1573 355Q1570 358 1570 363Q1567 368 1561 371Q1556 375 1551 378Q1549 390 1540 398Q1531 407 1527 419Q1526 421 1518 427Q1511 434 1509 434Q1511 444 1507 448Q1503 452 1503 460Q1499 463 1497 466Q1496 470 1495 473Q1494 477 1491 480Q1489 483 1483 484Q1481 492 1479 498Q1478 504 1467 506Q1467 512 1464 515Q1462 519 1458 522Q1455 525 1452 528Q1449 532 1449 537Q1452 524 1449 517Q1446 511 1446 505Q1446 500 1449 499Q1453 499 1453 494Q1453 489 1450 484Q1447 479 1447 474Q1449 460 1446 446Q1444 432 1449 428Q1449 423 1446 421Q1443 419 1441 415Q1443 411 1442 407Q1442 404 1443 400Q1444 396 1445 393Q1447 390 1447 387Q1447 376 1444 362Q1441 348 1449 339Q1445 333 1448 327Q1451 321 1451 315Q1450 312 1449 309Q1448 306 1448 302Q1447 294 1447 285Q1448 276 1447 268Q1447 263 1446 258Q1445 254 1445 249Q1445 244 1449 243Q1453 242 1451 237Q1438 224 1442 214Q1447 205 1442 196L1437 185Q1442 174 1440 163Q1438 153 1437 142Q1437 136 1438 130Q1440 124 1439 118Q1437 105 1439 100Q1442 96 1442 91Q1441 85 1438 77Q1435 69 1440 64Q1435 58 1433 50Q1431 43 1427 36Q1433 27 1427 19Q1422 11 1416 5Q1405 5 1401 5Q1397 6 1396 -8Q1391 -9 1385 -13Q1380 -16 1374 -16Q1366 -16 1361 -9Q1357 -2 1346 -3Q1347 0 1346 1Q1346 2 1344 2Q1342 3 1340 5Q1338 7 1338 13Q1328 30 1332 36Q1337 43 1337 50Q1337 54 1336 57Q1335 61 1340 64Q1342 69 1340 71Q1339 74 1339 79Q1346 89 1345 93Q1344 98 1344 101Q1347 109 1345 111Q1343 113 1343 116Q1343 130 1349 144Q1355 158 1355 172Q1355 177 1353 180Q1352 183 1351 187Q1349 200 1350 203Q1352 207 1352 211Q1353 219 1353 226Q1353 234 1353 242Q1355 268 1356 291Q1358 315 1349 341Q1354 346 1355 347Q1357 348 1358 355Q1358 363 1356 372Q1354 381 1359 389Q1359 394 1356 397Q1354 400 1353 404Q1354 416 1359 430Q1357 435 1356 439Q1356 444 1352 447Q1359 481 1361 517Q1362 534 1361 551Q1360 569 1362 586Q1362 589 1364 594Q1367 599 1370 601Q1364 608 1365 611Q1367 615 1366 623Q1367 633 1365 636Q1364 639 1363 643Q1362 647 1362 651Q1363 656 1366 662Q1363 672 1362 676Q1362 680 1363 681Q1365 683 1367 684Q1369 686 1370 692Q1379 687 1387 691Q1396 696 1406 696Q1415 696 1423 693Q1431 690 1441 692Q1442 689 1451 682Q1461 675 1464 673Q1466 662 1474 652Q1483 642 1488 634Q1490 631 1492 630Q1495 629 1497 627Q1497 621 1497 617Q1498 613 1501 608Q1507 599 1509 599Q1511 599 1513 597Q1515 594 1514 592Q1514 590 1519 586Q1524 582 1529 573Q1535 565 1539 560Q1543 555 1544 554Q1546 554 1546 547Q1546 543 1549 542Q1553 541 1555 538Q1557 531 1560 529Q1564 527 1566 523Q1568 521 1567 517Q1566 514 1568 512Q1575 506 1574 505Q1573 504 1573 502Q1572 499 1577 494Q1583 489 1586 488Q1587 485 1587 481Q1588 478 1590 475Q1594 470 1595 472Q1597 475 1597 464Q1597 463 1600 459Q1604 455 1608 450Q1612 445 1616 441Q1620 437 1621 436Q1620 425 1628 420Q1637 415 1644 408Q1648 404 1649 399Q1651 395 1657 393Q1664 374 1667 358Q1676 352 1681 342Q1686 333 1697 328Q1696 321 1700 314Q1705 308 1700 302Q1702 297 1706 296Q1711 296 1714 293Q1716 291 1718 286Q1720 282 1723 278Q1726 275 1732 267Q1736 262 1737 255Q1739 249 1745 244Q1742 238 1744 232Q1747 227 1751 222Q1758 220 1766 229Q1774 239 1774 246Q1785 248 1789 256Q1793 265 1794 276Q1814 291 1815 311Q1827 332 1834 348Q1841 364 1852 378Q1850 386 1854 389Q1859 392 1858 400Q1868 402 1871 410Q1874 418 1882 421Q1880 426 1882 430Q1885 435 1888 439L1889 449Q1887 455 1892 454Q1897 453 1899 456Q1906 465 1908 476Q1911 487 1912 498Q1913 503 1915 503Q1918 504 1920 508Q1924 519 1928 528Q1933 537 1941 545Q1943 550 1941 552Q1939 554 1939 558Q1940 562 1943 564Q1946 566 1943 573Q1948 580 1953 585Q1959 590 1961 599Q1969 601 1970 608Q1972 615 1978 618Q1977 624 1977 627Q1978 631 1979 636Q1987 644 1986 647Q1985 651 1987 655Q1992 658 1995 661Q1998 665 2004 666Q2005 671 2004 672Q2003 674 2005 679Q2013 681 2016 686Q2020 692 2030 692Q2032 694 2032 698Q2033 702 2033 705Q2038 707 2042 707Q2047 707 2052 707Q2064 709 2074 704Q2085 699 2099 699Q2100 691 2102 685Q2105 679 2107 673Q2111 658 2112 649Q2113 640 2124 627L2123 616Q2126 613 2126 609Q2127 605 2132 603Q2127 595 2130 588Q2134 581 2136 573L2130 564Q2132 559 2132 552Q2133 545 2139 543Q2132 535 2136 528Q2140 522 2140 514Q2139 512 2138 509Q2137 507 2137 504Q2137 502 2139 497Q2141 492 2141 487Q2144 468 2144 456Q2145 444 2145 432Q2145 427 2148 425Q2151 423 2154 421Q2155 418 2152 416Q2150 415 2151 410Q2153 408 2153 405Q2154 402 2158 402Q2153 385 2157 370Q2161 356 2160 341Q2159 338 2157 336Q2155 335 2154 332Q2154 329 2155 326Q2156 324 2156 322Q2156 319 2154 316Q2153 314 2153 312Q2153 307 2158 305Q2163 303 2162 300Q2162 298 2158 293Q2154 288 2162 287Q2157 284 2158 278Q2160 272 2156 270Q2163 248 2154 231Q2156 226 2157 221Q2159 216 2165 216Q2162 212 2159 209Q2156 206 2153 202Q2151 197 2155 196Q2159 196 2159 192Q2159 181 2157 179Q2156 178 2156 176Q2156 172 2157 168Q2159 164 2160 160Q2161 157 2160 153Q2159 149 2154 146Q2153 140 2156 134Q2159 129 2158 122Q2158 119 2157 115Q2157 112 2157 109Q2157 107 2156 101Q2156 95 2156 88Q2156 82 2156 76Q2157 71 2158 70Q2160 65 2167 58Q2175 52 2173 47ZM2694 707L2711 707Q2716 700 2722 698Q2729 697 2735 692Q2738 690 2740 689Q2742 689 2744 689Q2746 689 2749 687Q2752 685 2757 680L2765 671Q2770 668 2774 666Q2778 664 2781 659Q2786 658 2788 656Q2790 654 2795 655Q2804 643 2814 633Q2824 623 2837 615Q2837 612 2840 606Q2844 600 2848 594Q2853 588 2858 583Q2863 579 2866 578Q2864 570 2864 569Q2865 569 2867 561Q2870 557 2873 553Q2876 550 2880 546Q2887 538 2887 533Q2888 528 2898 520Q2897 511 2897 509Q2898 507 2899 505Q2904 500 2906 493Q2909 486 2916 481Q2916 467 2921 453Q2926 439 2925 425Q2928 421 2929 418Q2930 415 2930 412Q2931 409 2933 406Q2935 404 2940 400Q2938 398 2935 394Q2933 391 2933 389Q2935 380 2934 375Q2934 370 2929 362Q2933 353 2932 347Q2932 341 2930 336Q2928 331 2927 325Q2927 320 2931 313Q2930 306 2928 304Q2926 302 2925 300Q2924 299 2924 295Q2924 291 2927 280Q2924 276 2922 272Q2921 269 2918 265Q2917 259 2914 251Q2912 243 2909 235Q2907 227 2905 220Q2903 214 2903 211Q2898 196 2890 183Q2884 179 2876 173Q2878 171 2880 168Q2883 166 2885 164Q2878 155 2872 144Q2867 134 2858 127Q2856 119 2857 117L2846 110Q2845 104 2842 100Q2840 97 2839 90Q2832 87 2829 82Q2827 78 2825 70Q2815 71 2815 70Q2815 69 2807 65Q2801 59 2793 51Q2785 43 2777 40Q2769 38 2762 32Q2756 27 2750 22Q2739 22 2732 18Q2725 15 2716 10Q2706 5 2695 3Q2685 1 2675 -4Q2672 -4 2668 -4Q2665 -4 2662 -2Q2657 -7 2654 -9Q2651 -10 2643 -11Q2629 -17 2627 -17Q2625 -16 2619 -12Q2610 -17 2603 -18Q2597 -18 2590 -18Q2584 -17 2577 -18Q2571 -18 2565 -21Q2557 -20 2554 -19Q2551 -17 2548 -17Q2546 -16 2542 -17Q2539 -18 2530 -23Q2525 -22 2520 -21Q2516 -19 2512 -16Q2499 -15 2486 -11Q2474 -6 2465 3Q2462 3 2459 4Q2456 6 2453 6Q2445 5 2443 8Q2442 11 2440 13Q2433 15 2431 16Q2430 17 2422 15Q2410 23 2410 25Q2410 27 2399 25Q2396 33 2392 37Q2388 42 2383 45Q2379 49 2374 52Q2370 56 2367 63Q2359 66 2351 69Q2344 72 2336 75Q2334 82 2336 90Q2331 99 2330 104Q2330 109 2319 114Q2321 120 2320 123Q2320 127 2318 130Q2317 133 2315 137Q2314 141 2314 147Q2307 160 2306 171Q2306 183 2304 188Q2301 193 2298 196Q2295 199 2296 206Q2294 210 2292 213Q2290 216 2287 219Q2286 237 2274 249Q2277 254 2278 258Q2279 263 2272 266Q2272 271 2272 275Q2273 279 2276 282Q2275 287 2274 290Q2274 293 2277 298Q2275 309 2272 313Q2272 320 2272 321Q2273 323 2276 329Q2276 334 2274 338Q2273 343 2277 348Q2274 363 2276 378Q2278 393 2280 408Q2285 401 2285 393Q2285 385 2283 379Q2276 385 2278 393Q2280 402 2283 411Q2286 420 2288 428Q2291 436 2292 437Q2290 444 2293 448Q2296 452 2298 457Q2294 465 2295 469Q2297 473 2302 478Q2304 495 2310 511Q2316 527 2319 544Q2328 554 2333 559Q2338 565 2341 579Q2349 587 2350 590Q2351 593 2356 596Q2360 598 2363 602Q2366 607 2371 608Q2373 611 2374 615Q2376 619 2378 623Q2387 623 2391 627Q2403 642 2409 644Q2415 646 2420 658Q2429 660 2432 664Q2436 669 2444 671Q2445 674 2449 680Q2462 680 2470 686Q2479 692 2491 693Q2499 698 2506 701Q2513 705 2522 705Q2527 708 2536 710Q2545 713 2555 714Q2565 716 2574 716Q2584 716 2589 714Q2594 718 2596 716Q2599 714 2604 714Q2608 714 2615 718Q2623 723 2631 723Q2637 723 2640 721Q2644 719 2646 717Q2649 715 2652 713Q2655 711 2661 711Q2671 711 2678 714Q2686 717 2694 707ZM2841 405L2844 412Q2841 414 2839 416Q2837 419 2835 422Q2835 435 2830 446Q2825 457 2823 470Q2819 472 2818 475Q2817 479 2816 483Q2809 491 2804 496Q2799 501 2799 509Q2796 507 2791 517Q2787 527 2785 530Q2783 534 2780 537Q2778 540 2776 544Q2771 546 2766 548Q2761 551 2759 556Q2749 558 2744 563Q2744 571 2739 575Q2734 579 2732 586Q2725 588 2721 592Q2720 596 2718 597Q2716 598 2713 601Q2704 602 2699 607Q2694 612 2685 608Q2679 612 2678 616Q2671 618 2668 617Q2665 617 2661 619Q2652 628 2646 629Q2641 631 2635 631Q2630 625 2619 627Q2615 624 2610 622Q2606 621 2601 624Q2595 620 2591 620Q2585 620 2580 622Q2575 624 2569 624Q2562 624 2555 622Q2548 621 2540 622Q2532 614 2522 616Q2517 610 2512 609Q2508 608 2504 606Q2501 605 2498 600Q2495 596 2492 585Q2485 588 2482 588Q2479 589 2477 587Q2476 586 2473 583Q2471 581 2465 579L2461 569Q2452 564 2446 556Q2441 548 2431 544Q2428 536 2424 532Q2420 528 2415 522Q2415 517 2410 510Q2409 504 2404 502Q2402 494 2401 485Q2401 477 2396 469Q2394 466 2392 462Q2391 458 2391 455Q2393 445 2391 442Q2390 439 2389 436Q2388 434 2388 430Q2389 427 2393 419L2382 419Q2382 415 2382 411Q2383 407 2378 403Q2378 399 2379 395Q2380 392 2380 387Q2377 384 2377 382Q2377 381 2375 378Q2377 372 2376 365Q2376 358 2376 351Q2368 341 2370 325Q2369 315 2366 311Q2364 299 2365 297Q2367 295 2369 288Q2371 283 2370 278Q2370 274 2371 269Q2380 258 2380 244Q2381 231 2386 225Q2389 221 2392 217Q2396 214 2394 209Q2399 203 2399 200Q2399 197 2399 195Q2399 193 2401 191Q2403 190 2411 187Q2409 185 2406 182Q2404 180 2403 177Q2407 175 2408 171Q2409 168 2413 166Q2416 155 2416 144Q2428 139 2430 129Q2433 120 2443 112Q2448 113 2454 107Q2457 102 2461 102Q2465 103 2468 103L2467 93Q2486 86 2496 81Q2507 77 2524 80Q2529 74 2532 72Q2535 71 2537 72Q2540 73 2544 74Q2548 75 2554 75Q2560 68 2564 69Q2568 71 2576 71Q2579 71 2582 70Q2585 69 2588 69Q2593 68 2597 73Q2602 79 2613 72Q2621 77 2630 77Q2640 78 2649 77Q2660 88 2676 91Q2693 95 2707 98Q2715 107 2731 109Q2737 115 2744 118Q2751 122 2759 126Q2761 131 2763 135Q2765 140 2767 145Q2784 160 2792 173Q2801 186 2807 201Q2812 203 2813 204Q2814 206 2816 209Q2819 222 2818 232Q2823 243 2826 247Q2830 251 2825 264Q2836 271 2836 280Q2837 290 2837 301Q2843 311 2844 316Q2845 321 2843 332Q2849 344 2847 361Q2846 379 2846 393Q2846 398 2843 399Q2841 401 2841 405ZM3352 644Q3346 643 3343 646Q3340 649 3336 649Q3326 646 3320 650Q3317 652 3314 651Q3311 650 3308 650Q3303 650 3300 653Q3297 656 3293 657Q3288 656 3283 656Q3278 656 3273 656Q3264 656 3258 653Q3252 651 3249 651Q3238 653 3237 652Q3236 651 3234 650Q3228 646 3218 647Q3208 648 3201 646Q3200 646 3194 643Q3189 640 3183 636Q3177 632 3171 628Q3165 625 3164 624Q3162 617 3159 611Q3157 606 3155 599Q3138 586 3131 579Q3125 573 3123 558Q3115 545 3113 538Q3111 531 3111 523Q3111 517 3114 512Q3117 508 3117 502Q3124 495 3122 493Q3120 492 3129 488Q3135 486 3135 478Q3146 471 3148 466Q3151 462 3159 460Q3161 456 3162 453Q3164 450 3166 447Q3173 445 3178 442Q3183 439 3188 437Q3193 435 3198 434Q3204 434 3212 437Q3217 429 3225 426Q3234 426 3248 426Q3263 426 3278 427Q3294 428 3307 430Q3321 432 3327 437Q3333 435 3337 431Q3342 428 3347 424Q3354 426 3360 423Q3367 421 3373 418Q3379 415 3385 413Q3392 412 3401 415Q3404 411 3407 407Q3410 403 3414 400Q3425 398 3436 395Q3447 392 3455 382L3471 382Q3473 374 3479 373Q3486 372 3491 367Q3495 367 3496 365Q3497 363 3498 361Q3499 360 3500 359Q3502 358 3507 359Q3511 347 3523 343Q3530 327 3538 323Q3536 315 3542 307Q3549 299 3549 288Q3553 283 3555 277Q3557 271 3562 266Q3559 255 3560 245Q3562 236 3565 227Q3568 218 3571 209Q3575 200 3575 191Q3575 187 3574 184Q3573 181 3572 178Q3572 176 3574 173Q3577 170 3577 167Q3577 160 3574 157Q3571 155 3573 147Q3566 142 3563 137Q3561 132 3562 124Q3557 123 3556 120Q3556 118 3551 117Q3552 107 3547 100Q3542 94 3542 85Q3542 80 3538 79Q3534 79 3531 77Q3530 72 3526 62Q3520 62 3519 60Q3519 59 3517 57Q3499 46 3490 36Q3482 27 3463 22Q3458 21 3456 17Q3454 14 3450 12L3438 12Q3433 7 3429 4Q3426 1 3424 -5Q3405 -13 3390 -25Q3380 -24 3369 -28Q3359 -31 3351 -27Q3346 -29 3330 -34Q3314 -38 3309 -38Q3303 -38 3302 -35Q3302 -31 3294 -31Q3288 -31 3282 -34Q3277 -36 3271 -36Q3260 -36 3250 -32Q3240 -27 3229 -34Q3221 -31 3214 -28Q3208 -25 3200 -23Q3197 -22 3193 -22Q3190 -22 3187 -21Q3176 -18 3171 -15Q3167 -12 3155 -12Q3138 -12 3124 -5Q3110 3 3094 5Q3088 16 3076 21Q3075 26 3072 28Q3069 30 3066 32Q3061 36 3057 41Q3054 46 3051 51Q3045 53 3040 57Q3035 62 3030 67Q3031 76 3029 79Q3028 83 3022 91L3022 108Q3017 115 3012 122Q3007 129 3007 138Q3007 150 3014 161Q3021 172 3026 183Q3034 184 3038 184Q3043 185 3047 184Q3052 183 3056 183Q3060 183 3062 189Q3068 182 3073 175Q3079 168 3087 164Q3087 152 3092 146Q3097 140 3100 129Q3102 122 3108 120Q3114 118 3113 107Q3116 105 3120 103Q3124 101 3128 99Q3128 94 3129 91Q3130 89 3132 84Q3139 77 3148 74Q3158 71 3165 64Q3171 64 3175 62Q3180 61 3185 64Q3193 61 3198 59Q3204 58 3212 58Q3217 58 3219 54Q3221 51 3223 51Q3231 51 3233 56Q3243 54 3250 50Q3258 47 3269 47Q3277 47 3286 48Q3295 49 3303 49Q3310 49 3316 48Q3323 47 3329 47Q3333 47 3346 51Q3360 55 3365 57Q3375 60 3377 66L3388 66Q3397 77 3410 81Q3423 86 3434 94Q3436 94 3440 94Q3444 94 3446 96Q3452 98 3454 104Q3457 111 3459 116Q3464 114 3465 117Q3466 121 3472 120Q3474 125 3472 130Q3482 133 3484 141Q3487 149 3492 157Q3490 162 3491 166Q3492 171 3492 176Q3490 184 3491 186Q3492 189 3492 191Q3492 197 3490 207Q3488 217 3484 228Q3481 239 3476 248Q3472 258 3468 263Q3469 274 3464 277Q3460 281 3458 290Q3456 291 3451 293Q3447 296 3441 299Q3436 302 3432 305Q3428 308 3427 309Q3416 316 3406 315Q3396 314 3388 324Q3386 324 3381 321Q3377 319 3372 319Q3371 323 3369 325Q3368 327 3366 330Q3352 332 3338 339Q3325 346 3311 346Q3306 346 3301 343Q3296 341 3291 341Q3287 341 3284 342Q3281 343 3278 343Q3273 343 3269 342Q3265 341 3261 341Q3254 341 3248 343Q3242 345 3235 345Q3232 345 3229 344Q3226 343 3223 343Q3214 343 3207 346Q3201 350 3188 349Q3183 349 3180 352Q3177 356 3168 356Q3163 356 3157 357Q3152 358 3148 362Q3136 360 3131 363Q3127 366 3122 370Q3117 375 3112 379Q3108 384 3107 386Q3103 385 3102 387Q3101 389 3096 388Q3090 398 3081 406Q3072 415 3067 426Q3064 430 3054 434Q3054 438 3052 441Q3051 444 3052 448Q3035 462 3035 480Q3032 485 3030 488Q3029 492 3024 495Q3026 503 3028 513Q3031 524 3023 530Q3032 541 3032 553Q3033 566 3041 577Q3042 582 3043 587Q3044 592 3043 597Q3048 598 3054 607Q3060 616 3061 621Q3071 623 3075 631Q3079 639 3087 644Q3089 654 3095 661Q3101 668 3106 676Q3111 687 3116 695Q3122 704 3133 710Q3141 709 3150 712Q3159 716 3164 714Q3167 716 3169 719Q3172 722 3176 723Q3187 730 3190 729Q3193 729 3199 729Q3216 729 3222 733Q3229 738 3237 738Q3241 738 3245 736Q3249 735 3253 735Q3261 735 3273 736Q3285 738 3297 738Q3310 739 3321 738Q3332 738 3339 734Q3344 731 3349 732Q3355 733 3360 731Q3365 729 3367 725Q3369 721 3373 718Q3378 718 3388 716Q3398 714 3408 711Q3419 708 3428 705Q3438 702 3442 699Q3447 700 3452 698Q3457 696 3462 697Q3464 690 3470 689Q3476 689 3478 681Q3480 680 3484 678Q3488 676 3492 673Q3497 671 3501 669Q3505 668 3506 668Q3509 668 3512 669Q3515 671 3518 671Q3521 660 3526 650Q3531 641 3536 632Q3534 624 3533 617Q3532 610 3531 602Q3524 599 3517 595Q3511 592 3503 592Q3497 592 3492 594Q3487 597 3481 597Q3476 597 3472 595Q3469 594 3464 595Q3447 604 3440 616Q3433 615 3430 617Q3428 620 3424 625Q3420 623 3419 622Q3418 621 3413 623Q3411 628 3404 631Q3397 634 3392 634Q3389 634 3386 632Q3384 631 3381 631Q3376 631 3371 634Q3366 637 3363 637Q3353 635 3353 638Q3353 641 3352 644ZM4249 237Q4251 222 4245 212Q4240 203 4240 195Q4240 193 4241 190Q4242 188 4242 185Q4242 175 4240 166Q4239 157 4239 148Q4239 140 4241 131Q4243 123 4249 114Q4247 106 4246 94Q4246 82 4254 77Q4252 69 4251 64Q4251 60 4256 53Q4255 46 4252 39Q4250 33 4256 27Q4252 14 4239 9Q4226 4 4216 -3Q4212 -4 4210 -2Q4208 0 4204 1Q4202 -1 4199 -4Q4197 -6 4193 -6Q4183 0 4179 -1Q4175 -1 4173 1Q4165 13 4162 16Q4159 19 4156 22Q4153 25 4150 28Q4148 32 4148 38Q4148 46 4150 51Q4152 57 4147 64Q4157 72 4154 80Q4151 89 4142 94Q4152 97 4148 104Q4145 111 4145 116Q4145 122 4148 127Q4152 133 4152 140Q4149 152 4151 157Q4154 163 4154 169Q4154 180 4157 187Q4161 194 4159 207Q4153 214 4143 214Q4137 214 4131 212Q4126 210 4120 210Q4115 210 4111 211Q4107 212 4102 213Q4094 215 4085 214Q4076 214 4068 216Q4056 218 4043 221Q4030 224 4018 216Q4014 220 4003 218Q3993 216 3987 222Q3983 222 3980 219Q3978 217 3973 217Q3967 217 3958 221Q3950 225 3944 228Q3939 232 3932 232Q3926 233 3921 237Q3916 237 3914 235Q3912 233 3909 231Q3897 234 3894 233Q3891 233 3888 233Q3879 233 3870 235Q3862 237 3853 237Q3849 237 3845 235Q3841 234 3837 235Q3834 234 3831 232Q3828 231 3825 231Q3823 231 3817 233Q3812 235 3805 238Q3798 241 3792 244Q3787 247 3785 248Q3780 243 3781 232Q3783 222 3783 216Q3783 210 3782 204Q3781 199 3781 193Q3781 182 3787 177Q3786 165 3785 148Q3785 132 3785 114Q3785 97 3786 81Q3787 66 3790 55Q3791 51 3792 48Q3794 45 3794 40Q3794 32 3791 24Q3789 16 3787 8Q3782 10 3780 6Q3779 3 3775 1Q3771 -1 3763 -1Q3756 -1 3751 -3Q3747 -5 3743 -7Q3739 -8 3735 -10Q3727 -7 3720 -4Q3714 0 3706 3Q3704 11 3701 18Q3699 26 3699 34Q3699 38 3701 40Q3704 43 3704 47Q3704 56 3700 58Q3697 60 3694 62Q3692 65 3692 71Q3693 77 3701 92Q3700 97 3698 100Q3696 104 3694 109Q3696 114 3698 122Q3701 130 3694 133Q3695 135 3696 137Q3697 140 3697 143Q3697 147 3694 148Q3692 150 3692 153Q3692 156 3693 159Q3694 162 3694 166Q3694 175 3693 182Q3692 189 3697 198Q3692 203 3692 209Q3692 214 3693 217Q3694 221 3694 226Q3694 230 3693 233Q3692 236 3692 239L3692 256Q3692 263 3690 269Q3689 276 3689 283Q3689 288 3691 292Q3694 297 3694 302Q3694 305 3693 308Q3692 311 3692 314Q3692 319 3694 322Q3696 326 3697 330Q3699 341 3697 354Q3696 367 3694 378Q3699 386 3702 393Q3706 401 3706 410Q3706 417 3705 423Q3704 429 3704 435Q3704 442 3706 448Q3709 454 3709 460Q3709 465 3707 470Q3706 476 3706 481Q3706 492 3708 501Q3710 511 3706 521Q3712 525 3711 531Q3711 537 3711 543Q3711 546 3712 548Q3713 551 3713 553Q3713 558 3712 561Q3711 564 3711 569Q3711 582 3712 595Q3713 609 3704 621Q3710 629 3706 641Q3703 654 3699 662Q3705 668 3704 676Q3704 684 3706 692Q3713 697 3712 699Q3711 702 3713 705Q3715 707 3718 708Q3721 710 3723 712Q3731 719 3736 720Q3742 721 3747 719Q3753 718 3759 715Q3765 712 3773 712Q3775 706 3777 703Q3780 701 3782 699Q3784 697 3785 693Q3787 689 3787 682Q3792 672 3791 670Q3790 668 3790 666Q3790 655 3791 645Q3792 636 3792 625Q3794 607 3791 598Q3789 589 3797 579Q3792 579 3793 574Q3794 570 3790 569Q3793 554 3792 540Q3791 526 3789 512Q3787 498 3785 484Q3784 471 3787 458Q3781 455 3781 446Q3781 441 3782 435Q3783 430 3783 425Q3783 418 3782 411Q3781 405 3781 398Q3781 395 3782 392Q3783 389 3783 385Q3783 381 3779 381Q3775 382 3775 378Q3775 371 3776 364Q3778 358 3778 351L3778 324Q3784 323 3789 324Q3794 326 3800 327Q3807 329 3815 327Q3824 326 3837 319Q3846 323 3860 323Q3871 323 3880 320Q3889 317 3899 317Q3902 317 3905 316Q3909 316 3911 313Q3922 311 3932 311Q3943 312 3954 312Q3963 312 3972 309Q3981 306 3990 306Q4000 306 4013 308Q4027 310 4035 302Q4048 305 4054 304Q4060 304 4071 296Q4084 301 4097 300Q4111 300 4125 300Q4131 300 4132 303Q4134 306 4135 311Q4142 308 4145 307Q4149 307 4156 309Q4161 315 4161 322Q4161 330 4158 337Q4156 345 4153 353Q4150 361 4149 367Q4147 376 4148 385Q4149 395 4145 404Q4145 407 4146 409Q4148 412 4149 415Q4151 420 4150 424Q4149 428 4149 433Q4149 436 4150 438Q4152 440 4152 443Q4154 454 4155 460Q4156 467 4156 473Q4156 480 4156 487Q4157 495 4157 504Q4157 514 4156 522Q4156 531 4156 534Q4156 537 4155 540Q4154 543 4154 547Q4154 552 4156 556Q4159 561 4159 566Q4159 570 4157 573Q4156 577 4156 582Q4156 587 4157 593Q4158 599 4158 604Q4158 612 4155 618Q4152 624 4152 631Q4152 636 4153 641Q4154 646 4154 651Q4154 662 4153 672Q4152 682 4147 692Q4150 703 4152 704Q4154 706 4156 709Q4156 721 4163 724Q4171 728 4171 735Q4179 736 4185 737Q4192 739 4200 739Q4214 739 4219 732Q4225 726 4233 727Q4234 720 4238 715Q4242 711 4245 706Q4248 701 4247 694Q4247 688 4240 679Q4243 649 4242 618Q4241 587 4241 557Q4241 553 4241 549Q4241 545 4240 540Q4239 537 4237 534Q4235 532 4235 528Q4237 519 4236 517Q4235 516 4235 514Q4235 509 4237 506Q4240 503 4240 499Q4240 492 4238 486Q4236 480 4236 472Q4236 464 4230 460Q4233 449 4234 436Q4235 424 4237 413Q4239 408 4240 405Q4242 402 4242 397Q4242 391 4239 384Q4237 378 4237 371Q4237 368 4239 365Q4241 362 4242 358Q4243 356 4242 353Q4242 350 4242 348Q4242 343 4243 338Q4245 334 4246 330Q4247 327 4246 322Q4246 318 4242 313Q4244 305 4245 298Q4247 292 4252 285Q4255 280 4254 271Q4254 262 4259 254Q4259 247 4255 244Q4251 242 4249 237ZM4778 707L4795 707Q4800 700 4806 698Q4813 697 4819 692Q4822 690 4824 689Q4826 689 4828 689Q4830 689 4833 687Q4836 685 4841 680L4849 671Q4854 668 4858 666Q4862 664 4865 659Q4870 658 4872 656Q4874 654 4879 655Q4888 643 4898 633Q4908 623 4921 615Q4921 612 4924 606Q4928 600 4932 594Q4937 588 4942 583Q4947 579 4950 578Q4948 570 4948 569Q4949 569 4951 561Q4954 557 4957 553Q4960 550 4964 546Q4971 538 4971 533Q4972 528 4982 520Q4981 511 4981 509Q4982 507 4983 505Q4988 500 4990 493Q4993 486 5000 481Q5000 467 5005 453Q5010 439 5009 425Q5012 421 5013 418Q5014 415 5014 412Q5015 409 5017 406Q5019 404 5024 400Q5022 398 5019 394Q5017 391 5017 389Q5019 380 5018 375Q5018 370 5013 362Q5017 353 5016 347Q5016 341 5014 336Q5012 331 5011 325Q5011 320 5015 313Q5014 306 5012 304Q5010 302 5009 300Q5008 299 5008 295Q5008 291 5011 280Q5008 276 5006 272Q5005 269 5002 265Q5001 259 4998 251Q4996 243 4993 235Q4991 227 4989 220Q4987 214 4987 211Q4982 196 4974 183Q4968 179 4960 173Q4962 171 4964 168Q4967 166 4969 164Q4962 155 4956 144Q4951 134 4942 127Q4940 119 4941 117L4930 110Q4929 104 4926 100Q4924 97 4923 90Q4916 87 4913 82Q4911 78 4909 70Q4899 71 4899 70Q4899 69 4891 65Q4885 59 4877 51Q4869 43 4861 40Q4853 38 4846 32Q4840 27 4834 22Q4823 22 4816 18Q4809 15 4800 10Q4790 5 4779 3Q4769 1 4759 -4Q4756 -4 4752 -4Q4749 -4 4746 -2Q4741 -7 4738 -9Q4735 -10 4727 -11Q4713 -17 4711 -17Q4709 -16 4703 -12Q4694 -17 4687 -18Q4681 -18 4674 -18Q4668 -17 4661 -18Q4655 -18 4649 -21Q4641 -20 4638 -19Q4635 -17 4632 -17Q4630 -16 4626 -17Q4623 -18 4614 -23Q4609 -22 4604 -21Q4600 -19 4596 -16Q4583 -15 4570 -11Q4558 -6 4549 3Q4546 3 4543 4Q4540 6 4537 6Q4529 5 4527 8Q4526 11 4524 13Q4517 15 4515 16Q4514 17 4506 15Q4494 23 4494 25Q4494 27 4483 25Q4480 33 4476 37Q4472 42 4467 45Q4463 49 4458 52Q4454 56 4451 63Q4443 66 4435 69Q4428 72 4420 75Q4418 82 4420 90Q4415 99 4414 104Q4414 109 4403 114Q4405 120 4404 123Q4404 127 4402 130Q4401 133 4399 137Q4398 141 4398 147Q4391 160 4390 171Q4390 183 4388 188Q4385 193 4382 196Q4379 199 4380 206Q4378 210 4376 213Q4374 216 4371 219Q4370 237 4358 249Q4361 254 4362 258Q4363 263 4356 266Q4356 271 4356 275Q4357 279 4360 282Q4359 287 4358 290Q4358 293 4361 298Q4359 309 4356 313Q4356 320 4356 321Q4357 323 4360 329Q4360 334 4358 338Q4357 343 4361 348Q4358 363 4360 378Q4362 393 4364 408Q4369 401 4369 393Q4369 385 4367 379Q4360 385 4362 393Q4364 402 4367 411Q4370 420 4372 428Q4375 436 4376 437Q4374 444 4377 448Q4380 452 4382 457Q4378 465 4379 469Q4381 473 4386 478Q4388 495 4394 511Q4400 527 4403 544Q4412 554 4417 559Q4422 565 4425 579Q4433 587 4434 590Q4435 593 4440 596Q4444 598 4447 602Q4450 607 4455 608Q4457 611 4458 615Q4460 619 4462 623Q4471 623 4475 627Q4487 642 4493 644Q4499 646 4504 658Q4513 660 4516 664Q4520 669 4528 671Q4529 674 4533 680Q4546 680 4554 686Q4563 692 4575 693Q4583 698 4590 701Q4597 705 4606 705Q4611 708 4620 710Q4629 713 4639 714Q4649 716 4658 716Q4668 716 4673 714Q4678 718 4680 716Q4683 714 4688 714Q4692 714 4699 718Q4707 723 4715 723Q4721 723 4724 721Q4728 719 4730 717Q4733 715 4736 713Q4739 711 4745 711Q4755 711 4762 714Q4770 717 4778 707ZM4925 405L4928 412Q4925 414 4923 416Q4921 419 4919 422Q4919 435 4914 446Q4909 457 4907 470Q4903 472 4902 475Q4901 479 4900 483Q4893 491 4888 496Q4883 501 4883 509Q4880 507 4875 517Q4871 527 4869 530Q4867 534 4864 537Q4862 540 4860 544Q4855 546 4850 548Q4845 551 4843 556Q4833 558 4828 563Q4828 571 4823 575Q4818 579 4816 586Q4809 588 4805 592Q4804 596 4802 597Q4800 598 4797 601Q4788 602 4783 607Q4778 612 4769 608Q4763 612 4762 616Q4755 618 4752 617Q4749 617 4745 619Q4736 628 4730 629Q4725 631 4719 631Q4714 625 4703 627Q4699 624 4694 622Q4690 621 4685 624Q4679 620 4675 620Q4669 620 4664 622Q4659 624 4653 624Q4646 624 4639 622Q4632 621 4624 622Q4616 614 4606 616Q4601 610 4596 609Q4592 608 4588 606Q4585 605 4582 600Q4579 596 4576 585Q4569 588 4566 588Q4563 589 4561 587Q4560 586 4557 583Q4555 581 4549 579L4545 569Q4536 564 4530 556Q4525 548 4515 544Q4512 536 4508 532Q4504 528 4499 522Q4499 517 4494 510Q4493 504 4488 502Q4486 494 4485 485Q4485 477 4480 469Q4478 466 4476 462Q4475 458 4475 455Q4477 445 4475 442Q4474 439 4473 436Q4472 434 4472 430Q4473 427 4477 419L4466 419Q4466 415 4466 411Q4467 407 4462 403Q4462 399 4463 395Q4464 392 4464 387Q4461 384 4461 382Q4461 381 4459 378Q4461 372 4460 365Q4460 358 4460 351Q4452 341 4454 325Q4453 315 4450 311Q4448 299 4449 297Q4451 295 4453 288Q4455 283 4454 278Q4454 274 4455 269Q4464 258 4464 244Q4465 231 4470 225Q4473 221 4476 217Q4480 214 4478 209Q4483 203 4483 200Q4483 197 4483 195Q4483 193 4485 191Q4487 190 4495 187Q4493 185 4490 182Q4488 180 4487 177Q4491 175 4492 171Q4493 168 4497 166Q4500 155 4500 144Q4512 139 4514 129Q4517 120 4527 112Q4532 113 4538 107Q4541 102 4545 102Q4549 103 4552 103L4551 93Q4570 86 4580 81Q4591 77 4608 80Q4613 74 4616 72Q4619 71 4621 72Q4624 73 4628 74Q4632 75 4638 75Q4644 68 4648 69Q4652 71 4660 71Q4663 71 4666 70Q4669 69 4672 69Q4677 68 4681 73Q4686 79 4697 72Q4705 77 4714 77Q4724 78 4733 77Q4744 88 4760 91Q4777 95 4791 98Q4799 107 4815 109Q4821 115 4828 118Q4835 122 4843 126Q4845 131 4847 135Q4849 140 4851 145Q4868 160 4876 173Q4885 186 4891 201Q4896 203 4897 204Q4898 206 4900 209Q4903 222 4902 232Q4907 243 4910 247Q4914 251 4909 264Q4920 271 4920 280Q4921 290 4921 301Q4927 311 4928 316Q4929 321 4927 332Q4933 344 4931 361Q4930 379 4930 393Q4930 398 4927 399Q4925 401 4925 405ZM5589 92Q5581 78 5581 62Q5582 46 5577 32Q5563 34 5561 29Q5560 25 5550 25Q5530 25 5514 36Q5509 37 5505 36Q5501 35 5496 33Q5494 35 5493 38Q5493 41 5492 44Q5490 51 5486 54Q5482 58 5480 63Q5478 71 5478 75Q5478 79 5473 85Q5482 105 5487 120Q5493 136 5488 158Q5485 162 5479 164Q5474 166 5468 166Q5462 167 5456 167Q5450 168 5446 170Q5441 167 5435 165Q5430 163 5425 160Q5421 160 5419 162Q5417 165 5411 165Q5406 165 5402 163Q5398 162 5393 162Q5381 162 5369 164Q5358 167 5346 167Q5341 167 5337 166Q5333 165 5328 165Q5317 165 5306 170Q5296 175 5289 175Q5284 175 5280 172Q5277 169 5272 169Q5268 169 5264 170Q5261 172 5257 172Q5254 174 5248 174Q5242 174 5236 171Q5230 169 5224 165Q5218 161 5215 158Q5215 150 5215 145Q5215 141 5215 137Q5216 133 5218 129Q5221 126 5225 119Q5229 112 5232 105Q5235 99 5238 92Q5228 81 5238 82Q5234 64 5230 61Q5227 59 5225 50Q5226 47 5224 42Q5223 38 5227 36Q5225 31 5218 28Q5211 25 5215 18Q5213 16 5209 15Q5206 15 5203 13L5180 6Q5175 6 5173 7Q5172 8 5167 11Q5162 15 5156 14Q5151 14 5147 17Q5141 26 5139 31Q5138 37 5138 42Q5133 47 5131 55Q5129 63 5122 67Q5125 74 5131 76Q5130 87 5130 97Q5131 107 5131 118Q5131 129 5130 142Q5129 155 5124 164Q5122 167 5120 169Q5119 172 5118 175Q5117 180 5117 185Q5118 191 5118 196Q5118 202 5115 206Q5113 211 5113 216Q5113 219 5114 222Q5115 226 5115 229Q5116 251 5115 265Q5114 279 5113 293Q5115 307 5117 309Q5119 312 5119 320Q5119 325 5118 329Q5118 333 5118 338Q5118 353 5119 369Q5120 385 5118 400Q5117 406 5115 410Q5114 415 5114 422Q5114 427 5111 432Q5108 437 5104 440Q5105 443 5105 446Q5105 450 5105 453Q5115 455 5111 465Q5112 473 5109 474Q5106 475 5101 480Q5105 491 5106 502Q5108 513 5110 524Q5124 528 5136 534Q5148 540 5160 546Q5168 543 5172 540Q5176 537 5175 527Q5182 523 5189 522Q5187 514 5191 509Q5195 504 5195 497Q5195 491 5192 485Q5189 479 5187 474Q5190 470 5189 465Q5189 460 5188 455Q5188 450 5187 446Q5187 442 5190 440Q5189 422 5193 411Q5197 400 5197 392Q5197 387 5194 383Q5192 379 5197 374Q5198 371 5194 369Q5190 367 5190 362Q5190 354 5193 346Q5196 339 5195 331Q5194 322 5194 319Q5195 317 5195 315Q5195 301 5193 289Q5192 278 5195 265Q5203 260 5211 257Q5219 255 5227 251Q5238 253 5248 256Q5259 259 5270 259Q5277 259 5283 256Q5289 254 5295 254Q5302 254 5308 256Q5314 259 5320 259Q5325 259 5332 254Q5339 249 5343 246Q5351 245 5353 248Q5355 252 5360 254Q5363 247 5371 244L5393 244Q5405 244 5416 249Q5427 254 5439 254Q5442 254 5444 252Q5446 251 5449 251Q5452 251 5454 253Q5457 256 5460 256Q5468 256 5474 255Q5481 255 5488 260Q5488 268 5488 279Q5488 291 5481 297Q5486 317 5482 336Q5478 355 5478 375Q5478 380 5479 385Q5481 390 5481 395Q5481 400 5478 402Q5475 405 5473 410Q5475 421 5473 434Q5471 448 5463 456Q5462 459 5464 461Q5466 464 5466 467Q5466 472 5464 476Q5462 480 5462 485Q5462 499 5466 512Q5471 526 5473 540Q5482 544 5491 547Q5501 550 5509 558Q5515 556 5521 552Q5527 549 5533 547Q5534 543 5534 541Q5535 539 5539 538Q5541 538 5542 532Q5543 527 5548 528Q5549 519 5553 517Q5554 512 5553 507Q5552 503 5557 500Q5556 496 5553 493Q5550 491 5550 487Q5550 479 5552 470Q5554 462 5555 453Q5557 445 5557 436Q5557 428 5552 420Q5555 412 5560 403Q5565 394 5567 385Q5566 381 5563 378Q5560 375 5560 370Q5560 357 5561 344Q5562 331 5565 318Q5563 311 5564 308Q5566 305 5568 302Q5573 291 5573 274Q5574 257 5569 246Q5574 236 5574 220Q5574 215 5572 202Q5570 190 5569 176Q5569 163 5570 152Q5572 142 5579 142Q5577 132 5579 123Q5581 115 5577 105Q5578 100 5581 97Q5584 95 5589 92Z" fill="#5c0e2f" style=""></path></g></g></g></svg>